HIERARCHY
ROOT Hips
{
	OFFSET 0.000000 -0.057701 9.058100
	CHANNELS 6 Xposition Yposition Zposition Xrotation Yrotation Zrotation
	JOINT LHipJoint
	{
		OFFSET 0.000000 0.000000 0.000000
		CHANNELS 6 Xposition Yposition Zposition Xrotation Yrotation Zrotation
		JOINT LeftUpLeg
		{
			OFFSET 1.094800 0.103400 -0.195600
			CHANNELS 3 Xrotation Yrotation Zrotation
			JOINT LeftLeg
			{
				OFFSET 0.369600 -0.314299 -3.859600
				CHANNELS 3 Xrotation Yrotation Zrotation
				JOINT LeftFoot
				{
					OFFSET 0.340000 0.213401 -4.323900
					CHANNELS 3 Xrotation Yrotation Zrotation
					JOINT LeftToeBase
					{
						OFFSET 0.129600 -1.361300 -0.424400
						CHANNELS 3 Xrotation Yrotation Zrotation
						End Site
						{
							OFFSET 0.029167 -0.306363 -0.095512
						}
					}
				}
			}
		}
	}
	JOINT LowerBack
	{
		OFFSET 0.000000 0.334500 0.826200
		CHANNELS 3 Xrotation Yrotation Zrotation
		JOINT Spine
		{
			OFFSET 0.000000 0.077000 1.236199
			CHANNELS 3 Xrotation Yrotation Zrotation
			JOINT Spine1
			{
				OFFSET 0.000000 0.138400 1.326700
				CHANNELS 3 Xrotation Yrotation Zrotation
				JOINT LeftShoulder
				{
					OFFSET 0.225800 -0.730900 1.222000
					CHANNELS 6 Xposition Yposition Zposition Xrotation Yrotation Zrotation
					JOINT LeftArm
					{
						OFFSET 1.570700 0.099800 -0.256601
						CHANNELS 3 Xrotation Yrotation Zrotation
						JOINT LeftForeArm
						{
							OFFSET 1.602600 -0.073200 -1.757797
							CHANNELS 3 Xrotation Yrotation Zrotation
							JOINT LeftHand
							{
								OFFSET 1.215700 -1.701500 -1.164300
								CHANNELS 3 Xrotation Yrotation Zrotation
								JOINT LThumb
								{
									OFFSET 0.010001 -0.439400 -0.061702
									CHANNELS 6 Xposition Yposition Zposition Xrotation Yrotation Zrotation
									End Site
									{
										OFFSET 0.007261 -0.319017 -0.044797
									}
								}
								JOINT LeftFingerBase
								{
									OFFSET 0.105299 -0.266100 -0.148103
									CHANNELS 3 Xrotation Yrotation Zrotation
									JOINT LeftHandFinger1
									{
										OFFSET 0.170101 -0.684300 -0.222499
										CHANNELS 3 Xrotation Yrotation Zrotation
										End Site
										{
											OFFSET 0.074130 -0.298218 -0.096966
										}
									}
								}
							}
						}
					}
				}
				JOINT Neck
				{
					OFFSET 0.000000 -0.589700 1.970500
					CHANNELS 3 Xrotation Yrotation Zrotation
					JOINT Neck1
					{
						OFFSET 0.000000 -0.159700 0.448900
						CHANNELS 3 Xrotation Yrotation Zrotation
						JOINT Head
						{
							OFFSET 0.000000 -0.159700 0.448901
							CHANNELS 3 Xrotation Yrotation Zrotation
							End Site
							{
								OFFSET 0.000000 -0.108004 0.303590
							}
						}
					}
				}
				JOINT RightShoulder
				{
					OFFSET -0.225800 -0.730900 1.222000
					CHANNELS 6 Xposition Yposition Zposition Xrotation Yrotation Zrotation
					JOINT RightArm
					{
						OFFSET -1.570700 0.099800 -0.256601
						CHANNELS 3 Xrotation Yrotation Zrotation
						JOINT RightForeArm
						{
							OFFSET -1.602600 -0.073200 -1.757797
							CHANNELS 3 Xrotation Yrotation Zrotation
							JOINT RightHand
							{
								OFFSET -1.215700 -1.701500 -1.164300
								CHANNELS 3 Xrotation Yrotation Zrotation
								JOINT RThumb
								{
									OFFSET -0.010001 -0.439400 -0.061702
									CHANNELS 6 Xposition Yposition Zposition Xrotation Yrotation Zrotation
									End Site
									{
										OFFSET -0.007261 -0.319017 -0.044797
									}
								}
								JOINT RightFingerBase
								{
									OFFSET -0.105299 -0.266100 -0.148103
									CHANNELS 3 Xrotation Yrotation Zrotation
									JOINT RightHandFinger1
									{
										OFFSET -0.170101 -0.684300 -0.222499
										CHANNELS 3 Xrotation Yrotation Zrotation
										End Site
										{
											OFFSET -0.074130 -0.298218 -0.096966
										}
									}
								}
							}
						}
					}
				}
			}
		}
	}
	JOINT RHipJoint
	{
		OFFSET 0.000000 0.000000 0.000000
		CHANNELS 6 Xposition Yposition Zposition Xrotation Yrotation Zrotation
		JOINT RightUpLeg
		{
			OFFSET -1.094800 0.103400 -0.195600
			CHANNELS 3 Xrotation Yrotation Zrotation
			JOINT RightLeg
			{
				OFFSET -0.369600 -0.314299 -3.859600
				CHANNELS 3 Xrotation Yrotation Zrotation
				JOINT RightFoot
				{
					OFFSET -0.340000 0.213401 -4.323900
					CHANNELS 3 Xrotation Yrotation Zrotation
					JOINT RightToeBase
					{
						OFFSET -0.129600 -1.361300 -0.424400
						CHANNELS 3 Xrotation Yrotation Zrotation
						End Site
						{
							OFFSET -0.029167 -0.306363 -0.095512
						}
					}
				}
			}
		}
	}
}
MOTION
Frames: 6
Frame Time: 0.041667
-5.876622 -16.296143 9.091133 -0.532241 0.573676 -147.672610 -0.000000 0.000000 -0.000001 -0.000000 0.000001 0.000003 4.676570 5.434058 -0.443846 -7.412378 -0.917810 -0.918989 0.000001 -0.000002 0.000003 -0.000005 -0.000001 -0.000002 -7.805585 -0.701484 -0.420687 0.000000 0.000001 0.000001 -2.109923 3.214635 -0.064227 0.225799 -0.730901 1.222001 -2.845169 -10.156063 0.635457 -7.895471 26.716932 -39.308179 31.692990 9.972331 26.154104 0.000004 0.000003 -0.000000 0.010002 -0.439399 -0.061701 -0.000005 -0.000000 -0.000001 -0.000003 -0.000000 0.000004 -0.000002 -0.000003 -0.000005 10.385030 -0.977567 -31.569947 14.793355 -4.076576 1.182707 -0.000000 0.000001 -0.000000 -0.225801 -0.730900 1.222001 -4.228571 10.765261 6.864596 2.199479 -19.238394 52.821586 31.692996 -9.972329 -26.154104 -0.000003 -0.000002 0.000001 -0.009999 -0.439401 -0.061700 0.000002 -0.000002 0.000001 0.000003 -0.000003 -0.000002 0.000002 0.000002 0.000006 -0.000000 0.000000 0.000000 0.000001 -0.000000 0.000001 4.676573 -5.434063 0.443849 -7.412379 0.917810 0.918989 0.000002 -0.000001 0.000000 -0.000003 0.000001 0.000001 
-5.876460 -16.298216 9.091665 -0.520826 0.569386 -147.718427 -0.000000 0.000001 -0.000001 -0.000001 -0.000001 0.000001 4.676572 5.434061 -0.443850 -7.412378 -0.917811 -0.918986 0.000002 -0.000001 0.000001 -0.000004 0.000001 -0.000006 -8.009911 -0.701945 -0.423673 0.000001 -0.000000 -0.000001 -2.451098 3.245345 -0.041136 0.225800 -0.730901 1.222000 -2.063394 -9.988589 -0.094440 -8.386479 26.406751 -39.000998 31.692990 9.972328 26.154104 -0.000000 -0.000003 0.000002 0.010003 -0.439400 -0.061702 -0.000000 -0.000004 0.000001 0.000001 0.000000 0.000004 -0.000004 -0.000003 -0.000004 15.500457 -1.395854 -31.181675 9.315937 -6.546391 1.528569 -0.000003 0.000000 0.000000 -0.225800 -0.730901 1.222000 -3.302890 10.459272 7.623532 1.590982 -18.723388 52.288240 31.692990 -9.972331 -26.154104 0.000004 -0.000003 -0.000003 -0.010001 -0.439397 -0.061700 -0.000003 0.000001 0.000000 0.000001 0.000003 -0.000003 -0.000001 0.000003 0.000002 -0.000001 0.000001 -0.000001 -0.000001 0.000000 -0.000004 4.676579 -5.434072 0.443849 -7.412379 0.917811 0.918991 0.000000 0.000001 -0.000002 -0.000003 0.000003 0.000000 
-5.876297 -16.300287 9.092196 -0.509424 0.565086 -147.764244 0.000001 0.000001 0.000001 0.000001 0.000000 -0.000001 4.676573 5.434064 -0.443848 -7.412378 -0.917810 -0.918987 0.000002 -0.000001 -0.000000 -0.000007 0.000000 -0.000003 -8.214231 -0.702398 -0.426655 0.000001 0.000000 -0.000002 -2.569734 3.200492 -0.048709 0.225800 -0.730899 1.221998 -1.662481 -9.840589 -0.501594 -8.563669 26.240859 -38.927024 31.692990 9.972325 26.154107 -0.000002 0.000007 0.000001 0.010001 -0.439400 -0.061702 -0.000003 -0.000002 0.000000 -0.000001 0.000001 0.000001 0.000002 -0.000002 -0.000003 18.857341 -1.563946 -31.095481 5.282971 -8.398205 1.586765 -0.000000 -0.000000 -0.000000 -0.225801 -0.730900 1.221997 -2.936177 10.362272 8.057862 1.332826 -18.540707 51.903963 31.692993 -9.972331 -26.154111 0.000005 -0.000009 -0.000001 -0.010001 -0.439400 -0.061702 -0.000005 0.000001 -0.000003 -0.000003 -0.000003 -0.000003 0.000001 -0.000002 -0.000001 0.000001 0.000001 0.000001 0.000001 0.000001 0.000001 4.676587 -5.434079 0.443851 -7.412379 0.917811 0.918987 0.000000 -0.000001 0.000001 -0.000005 0.000001 0.000006 
-5.876134 -16.302359 9.092725 -0.498018 0.560778 -147.810047 0.000001 -0.000000 0.000000 0.000001 -0.000001 -0.000002 4.676574 5.434066 -0.443849 -7.412379 -0.917810 -0.918984 -0.000000 -0.000003 0.000006 -0.000003 -0.000001 -0.000004 -8.279767 -0.703335 -0.428779 -0.000000 0.000001 -0.000004 -2.688405 3.155640 -0.056375 0.225800 -0.730900 1.222000 -1.375004 -9.772452 -0.783654 -8.723108 26.111994 -38.853531 31.692990 9.972327 26.154099 -0.000003 0.000003 0.000003 0.010000 -0.439400 -0.061700 0.000000 0.000003 0.000002 0.000002 0.000001 0.000001 -0.000003 -0.000004 -0.000003 21.431078 -1.531587 -30.907979 2.113931 -10.084812 1.649290 -0.000002 -0.000000 0.000000 -0.225801 -0.730900 1.222000 -2.670570 10.363934 8.326100 -5.994055 -18.350773 53.633418 -51.009188 76.115451 37.289756 -55.620720 33.118132 0.276234 -0.010001 -0.439399 -0.061700 -0.000004 -0.000001 -0.000000 -0.000005 -0.000000 -0.000001 -0.000001 0.000004 0.000003 0.000001 -0.000000 0.000000 0.000001 -0.000000 -0.000001 4.676591 -5.434085 0.443854 -7.412378 0.917810 0.918989 0.000001 0.000000 -0.000002 -0.000005 0.000001 0.000004 
-5.875972 -16.304432 9.093257 -0.486625 0.556460 -147.855864 -0.000000 0.000001 0.000001 -0.000003 0.000001 0.000002 4.676575 5.434066 -0.443849 -7.412378 -0.917810 -0.918991 0.000002 -0.000001 0.000003 -0.000005 0.000000 -0.000001 -8.345299 -0.704269 -0.430898 0.000002 -0.000001 0.000004 -2.806640 3.110263 -0.064143 0.225802 -0.730900 1.222000 -1.087280 -9.705714 -1.065978 -8.882122 25.983001 -38.780544 31.692990 9.972326 26.154102 0.000005 0.000004 0.000003 0.010003 -0.439401 -0.061702 0.000004 -0.000001 -0.000001 0.000003 0.000003 -0.000002 -0.000000 -0.000002 -0.000003 23.583986 -1.351195 -30.925553 -0.104397 -11.631089 1.655050 -0.000002 0.000000 0.000000 -0.225800 -0.730901 1.222001 -2.405000 10.366812 8.594296 0.572653 -18.513740 52.755606 -79.267392 59.065994 57.573625 -2.471245 -1.975888 5.332373 -0.010000 -0.439399 -0.061699 0.000000 -0.000000 -0.000001 -0.000000 -0.000002 0.000002 -0.000000 0.000002 -0.000001 -0.000000 0.000001 0.000001 -0.000003 -0.000001 -0.000001 4.676600 -5.434093 0.443850 -7.412379 0.917811 0.918984 0.000002 0.000000 0.000000 -0.000001 0.000000 0.000003 
-5.875810 -16.306503 9.093787 -0.475231 0.552134 -147.901668 0.000001 -0.000001 -0.000000 0.000001 0.000001 -0.000001 4.676576 5.434070 -0.443857 -7.412377 -0.917809 -0.918991 0.000002 -0.000003 0.000004 -0.000005 -0.000001 0.000001 -8.410820 -0.705201 -0.433023 0.000000 -0.000001 -0.000001 -2.806950 3.064903 -0.075149 0.225802 -0.730900 1.221998 -0.961457 -9.641193 -1.174631 -8.922181 25.935323 -38.810163 31.692996 9.972327 26.154104 0.000002 0.000003 0.000004 0.010001 -0.439400 -0.061701 0.000002 -0.000002 0.000000 0.000001 0.000002 0.000003 -0.000000 -0.000002 0.000000 25.363083 -1.203481 -30.979293 -2.336762 -13.177109 1.599336 -0.000000 0.000000 0.000000 -0.225799 -0.730900 1.221999 -2.303657 10.364954 8.735836 0.319378 -18.443276 51.934525 -81.287126 60.357460 60.326888 5.072356 -8.898788 9.294605 -0.010001 -0.439399 -0.061701 0.000000 -0.000004 -0.000002 -0.000000 -0.000007 -0.000004 -0.000000 0.000000 0.000001 0.000001 -0.000001 0.000000 0.000001 0.000001 0.000002 4.676606 -5.434099 0.443856 -7.412379 0.917810 0.918991 -0.000000 0.000001 -0.000003 -0.000000 0.000000 0.000004 
